<?xml version="1.0" encoding="UTF-8" standalone="no"?>
<!DOCTYPE svg PUBLIC "-//W3C//DTD SVG 1.1//EN" "http://www.w3.org/Graphics/SVG/1.1/DTD/svg11.dtd">
<svg version="1.1" xmlns="http://www.w3.org/2000/svg" xmlns:xlink="http://www.w3.org/1999/xlink" preserveAspectRatio="xMidYMid meet" viewBox="0 0 640 640" width="639.87" height="640"><defs><path d="M386.79 457.77L289.64 457.77L281.38 441.25L235.79 350.07L236.94 349.7L238.25 349.24L239.53 348.73L240.78 348.17L242.01 347.56L243.21 346.91L244.38 346.21L245.52 345.47L246.63 344.69L247.71 343.87L248.76 343L249.77 342.1L250.75 341.16L251.69 340.19L252.59 339.17L253.45 338.13L254.28 337.05L255.06 335.94L255.8 334.8L256.5 333.62L257.15 332.42L257.75 331.2L258.31 329.94L258.83 328.66L259.29 327.36L259.7 326.03L260.06 324.69L260.37 323.32L260.63 321.93L260.83 320.52L260.97 319.1L261.06 317.66L261.09 316.21L261.06 314.75L260.97 313.32L260.83 311.89L260.63 310.49L260.37 309.1L260.06 307.73L259.7 306.38L259.29 305.06L258.83 303.75L258.31 302.47L257.75 301.22L257.15 299.99L256.5 298.79L255.8 297.62L255.06 296.48L254.28 295.37L253.45 294.29L252.59 293.24L251.69 292.23L250.75 291.25L249.77 290.31L248.76 289.41L247.71 288.55L246.63 287.73L245.52 286.94L244.38 286.2L243.21 285.51L242.01 284.85L240.78 284.25L239.53 283.69L238.25 283.18L236.94 282.71L235.62 282.3L234.27 281.94L232.9 281.63L231.52 281.37L230.11 281.17L228.69 281.03L227.25 280.94L225.79 280.91L224.34 280.94L222.9 281.03L221.48 281.17L220.07 281.37L218.68 281.63L217.32 281.94L215.97 282.3L214.64 282.71L213.34 283.18L212.06 283.69L210.81 284.25L209.58 284.85L208.38 285.51L207.21 286.2L206.06 286.94L204.95 287.73L203.87 288.55L202.83 289.41L201.82 290.31L200.84 291.25L199.9 292.23L199 293.24L198.13 294.29L197.31 295.37L196.53 296.48L195.79 297.62L195.09 298.79L194.44 299.99L193.83 301.22L193.27 302.47L192.76 303.75L192.3 305.06L191.88 306.38L191.52 307.73L191.21 309.1L190.96 310.49L190.76 311.89L190.61 313.32L190.53 314.75L190.5 316.21L190.53 317.66L190.61 319.1L190.76 320.52L190.96 321.93L191.21 323.32L191.52 324.69L191.88 326.03L192.3 327.36L192.76 328.66L193.27 329.94L193.83 331.2L194.44 332.42L195.09 333.62L195.79 334.8L196.53 335.94L197.31 337.05L198.13 338.13L199 339.17L199.9 340.19L200.84 341.16L201.82 342.1L202.83 343L203.87 343.87L204.95 344.69L206.06 345.47L207.21 346.21L208.38 346.91L209.58 347.56L210.81 348.17L212.06 348.73L213.34 349.24L214.64 349.7L215.8 350.07L170.21 441.25L161.95 457.77L63.39 457.77L144.59 295.36L225.8 132.96L258.25 197.87L386.79 457.77Z" id="c51Q2MgRJ5"></path><path d="M510.43 457.77L412.69 457.77L346.68 325.76L320 272.4L368.88 174.65L439.66 316.21L510.43 457.77Z" id="b4uLIQsCLP"></path></defs><g><g><g><use xlink:href="#c51Q2MgRJ5" opacity="1" fill="#000000" fill-opacity="1"></use></g><g><use xlink:href="#b4uLIQsCLP" opacity="1" fill="#000000" fill-opacity="1"></use></g></g></g></svg>